<?xml version="1.0" encoding="UTF-8"?>
<svg width="3600px" height="1200px" viewBox="0 0 3600 1200" version="1.1" xmlns="http://www.w3.org/2000/svg" xmlns:xlink="http://www.w3.org/1999/xlink">
    <!-- Generator: Sketch 47.1 (45422) - http://www.bohemiancoding.com/sketch -->
    <title>Artboard 2 Copy</title>
    <desc>Created with Sketch.</desc>
    <defs></defs>
    <g id="Page-1" stroke="none" stroke-width="1" fill="none" fill-rule="evenodd">
        <g id="Artboard-2-Copy">
            <g id="Group-2" transform="translate(122.000000, 119.000000)">
                <polygon id="Fill-1" fill="#C1832F" points="432 189 437 189 437 1 432 1"></polygon>
                <polyline id="Fill-3" fill="#6C523C" points="408 134.634561 434.5 123 461 134.634561 461 160.996734 434.42923 170 408 160.996734 408 134.634561"></polyline>
                <polyline id="Fill-4" fill="#4A3A2A" points="408 160.672275 408 134.634561 435 123 435 170 408 160.672275"></polyline>
                <polyline id="Fill-5" fill="#6C523C" points="408 82.6389463 434.5 71 461 82.6389463 461 108.998498 434.42923 118 408 108.998498 408 82.6389463"></polyline>
                <polyline id="Fill-6" fill="#4A3A2A" points="408 108.674727 408 82.6389463 435 71 435 118 408 108.674727"></polyline>
                <polygon id="Fill-9" fill="#C1832F" points="504 189 509 189 509 1 504 1"></polygon>
                <polyline id="Fill-10" fill="#6C523C" points="480 134.634561 506.5 123 533 134.634561 533 160.996734 506.428587 170 480 160.996734 480 134.634561"></polyline>
                <polyline id="Fill-11" fill="#4A3A2A" points="480 160.672275 480 134.634561 507 123 507 170 480 160.672275"></polyline>
                <polyline id="Fill-12" fill="#6C523C" points="480 82.6389463 506.5 71 533 82.6389463 533 108.998498 506.428587 118 480 108.998498 480 82.6389463"></polyline>
                <polyline id="Fill-13" fill="#4A3A2A" points="480 108.674727 480 82.6389463 507 71 507 118 480 108.674727"></polyline>
                <polyline id="Fill-16" fill="#E05829" points="416.882967 858 530.988868 858 582 975 376 975 416.882967 858"></polyline>
                <polyline id="Fill-17" fill="#7B814D" points="430 810 441.054274 845.286174 476 858 465.586873 822.109325 430 810"></polyline>
                <polyline id="Fill-18" fill="#7B814D" points="519 817 487.378082 826.860923 476 858 508.164653 848.69444 519 817"></polyline>
                <polyline id="Fill-25" fill="#E05829" points="1733.75341 168.728864 1699.50032 140 1665.25308 168.723046 1631 140 1631 162.226521 1665.25308 192 1699.50032 162.226521 1699.50032 162.221996 1733.75341 192 1768 162.221996 1768 140 1733.75341 168.728864"></polyline>
                <polyline id="Fill-26" fill="#9E9D6B" points="1749.76278 118 1649.55591 118 1604 14 1788 14 1749.76278 118"></polyline>
                <polyline id="Fill-39" fill="#6C523C" points="525.760916 577 425.558005 577 380 473 564 473 525.760916 577"></polyline>
                <polyline id="Fill-40" fill="#F5BC45" points="414.036854 409 398 434.000324 414.036854 459 426 459 410.534986 434.000324 426 409 414.036854 409"></polyline>
                <polyline id="Fill-41" fill="#F5BC45" points="442.036854 409 426 434.000324 442.036854 459 454 459 438.534986 434.000324 454 409 442.036854 409"></polyline>
                <polyline id="Fill-42" fill="#F5BC45" points="482 409 470.037409 409 454 434.000324 470.037409 459 482 459 466.528556 434.000324 482 409"></polyline>
                <polyline id="Fill-43" fill="#F5BC45" points="510 409 498.033783 409 482 434.000324 498.033783 459 510 459 494.532077 434.000324 510 409"></polyline>
                <polyline id="Fill-44" fill="#F5BC45" points="538 409 526.030634 409 510 434.000324 526.030634 459 538 459 522.527547 434.000324 538 409"></polyline>
                <polyline id="Fill-45" fill="#ECD571" points="99.1362138 167 39.2345185 167 12 105 122 105 99.1362138 167"></polyline>
                <polyline id="Fill-47" fill="#9E9D6B" points="880.503547 493 843 525.638212 843 550 880.503547 518.511524 918 550 918 525.638212 880.503547 493"></polyline>
                <polyline id="Fill-48" fill="#E05829" points="880.503547 435 843 467.635826 843 492 880.503547 460.513961 918 492 918 467.635826 880.503547 435"></polyline>
                <polygon id="Fill-51" fill="#D8D3C8" points="862 188 895 188 895 105 862 105"></polygon>
                <polyline id="Fill-56" fill="#F5BC45" points="1651 867 1744 867.305738 1724.4102 984 1669.57349 984 1651 867"></polyline>
                <polyline id="Fill-57" fill="#ECD571" points="1706 804 1695.31552 804 1681 826.006482 1695.31552 848 1706 848 1692.19292 826.006482 1706 804"></polyline>
                <polyline id="Fill-58" fill="#ECD571" points="1712.68476 782 1702 782 1715.80811 803.996759 1702 826 1712.68476 826 1727 803.996759 1712.68476 782"></polyline>
                <polyline id="Fill-59" fill="#9E9D6B" points="1698 867.149616 1697.88266 984 1669.72764 984 1651 867 1698 867.149616"></polyline>
                <polyline id="Fill-116" fill="#E05829" points="1248 981 1248 870 1229.66268 870 1229.66268 880.034082 1215 879.760603 1215 981 1248 981"></polyline>
                <polyline id="Fill-117" fill="#9E9D6B" points="1248 981 1248 870 1266.33362 870 1266.33362 880.034082 1281 879.760603 1281 981 1248 981"></polyline>
                <polygon id="Fill-118" fill="#D8D3C8" points="1224 872 1270 872 1270 857 1224 857"></polygon>
                <polyline id="Fill-119" fill="#4A3A2A" points="1327 981 1327 870 1308.66993 870 1308.66993 880.034082 1294 879.760603 1294 981 1327 981"></polyline>
                <polyline id="Fill-120" fill="#F5BC45" points="1327 981 1327 870 1345.33333 870 1345.33333 880.034082 1360 879.760603 1360 981 1327 981"></polyline>
                <polygon id="Fill-121" fill="#D8D3C8" points="1303 872 1349 872 1349 857 1303 857"></polygon>
                <polyline id="Fill-122" fill="#4A3A2A" points="1229.65074 42 1337.23249 42 1387 156 1186 156 1229.65074 42"></polyline>
                <polyline id="Fill-125" fill="#E05829" points="1643 563 1667 563 1667 402.001441 1655.37461 384 1644.65072 402.001441 1643 563"></polyline>
                <polyline id="Fill-126" fill="#9E9D6B" points="1597 563 1597 402.07589 1612.05888 384.475453 1612.06534 369 1656 369 1656 384.475453 1646.27771 402.49376 1646.27771 563 1597 563"></polyline>
                <polygon id="Fill-127" fill="#E05829" points="1606 502 1639 502 1639 419 1606 419"></polygon>
                <polyline id="Fill-128" fill="#E05829" points="1750 563 1774 563 1774 402.178349 1762.39316 384 1751.65072 402.178349 1750 563"></polyline>
                <polyline id="Fill-129" fill="#9E9D6B" points="1703 563 1703 402.07589 1718.05936 384.475453 1718.06583 369 1762 369 1762 384.475453 1752.27717 402.49376 1752.27717 563 1703 563"></polyline>
                <polyline id="Fill-130" fill="#7B814D" points="1727.85979 563 1727.85979 404.069358 1738 384.892675 1738 369 1718.20868 369 1718.20215 384.475453 1703 402.07589 1703 563 1727.85979 563"></polyline>
                <polyline id="Fill-148" fill="#C1832F" points="63.5064619 545 114 518.717537 63.5064619 491 13 518.717537 63.5064619 545"></polyline>
                <polyline id="Fill-149" fill="#6C523C" points="114 538.516409 114 518 63.5064619 544.513875 13 518 13 538.516409 63.5064619 566 114 538.516409"></polyline>
                <polyline id="Fill-150" fill="#9E9D6B" points="124 499.208152 61.722118 533 0 500.245607 62.1615593 474 124 499.208152"></polyline>
                <polyline id="Fill-151" fill="#E05829" points="84.9059164 458 62.5 470.106941 40.1005894 458 4 477.504771 4 491.825535 40.1005894 511 62.5 499.097411 84.9059164 511 121 491.825535 121 477.504771 84.9059164 458"></polyline>
                <polyline id="Fill-152" fill="#ECD571" points="124 462.210359 61.722118 496 0 463.242739 62.1615593 437 124 462.210359"></polyline>
                <polyline id="Fill-153" fill="#4A3A2A" points="63.5064619 406 13 433.60205 13 453.863439 63.5064619 481 114 453.863439 114 433.60205 63.5064619 406"></polyline>
                <polyline id="Fill-154" fill="#C1832F" points="63.5064619 425 114 398.714382 63.5064619 371 13 398.714382 63.5064619 425"></polyline>
                <polyline id="Fill-155" fill="#6C523C" points="114 419.516129 114 399 63.5064619 425.513514 13 399 13 419.516129 63.5064619 447 114 419.516129"></polyline>
                <polyline id="Fill-158" fill="#F5BC45" points="2166 124.959514 2166 57 2086.00615 98.5187677 2006 57 2006 124.959514 2086.00615 168 2166 124.959514"></polyline>
                <polygon id="Fill-159" fill="#C1832F" points="2837 975 2842 975 2842 787 2837 787"></polygon>
                <polyline id="Fill-163" fill="#6C523C" points="2813 868.643152 2839.49936 857 2866 868.643152 2866 894.998898 2839.42923 904 2813 894.998898 2813 868.643152"></polyline>
                <polyline id="Fill-164" fill="#4A3A2A" points="2813 894.675117 2813 868.643152 2840 857 2840 904 2813 894.675117"></polyline>
                <polyline id="Fill-165" fill="#6C523C" points="2813 816.641548 2839.49936 805 2866 816.641548 2866 843.000138 2839.42923 852 2813 843.000138 2813 816.641548"></polyline>
                <polyline id="Fill-166" fill="#4A3A2A" points="2813 842.669927 2813 816.641548 2840 805 2840 852 2813 842.669927"></polyline>
                <polygon id="Fill-167" fill="#C1832F" points="2909 975 2914 975 2914 787 2909 787"></polygon>
                <polyline id="Fill-170" fill="#6C523C" points="2885 868.643152 2911.50032 857 2938 868.643152 2938 894.998898 2911.42955 904 2885 894.998898 2885 868.643152"></polyline>
                <polyline id="Fill-171" fill="#4A3A2A" points="2885 894.675117 2885 868.643152 2912 857 2912 904 2885 894.675117"></polyline>
                <polyline id="Fill-172" fill="#6C523C" points="2885 816.641548 2911.50032 805 2938 816.641548 2938 843.000138 2911.42955 852 2885 843.000138 2885 816.641548"></polyline>
                <polyline id="Fill-173" fill="#4A3A2A" points="2885 842.669927 2885 816.641548 2912 805 2912 852 2885 842.669927"></polyline>
                <polyline id="Fill-189" fill="#9E9D6B" points="2509.13557 869 2449.23452 869 2422 807 2532 807 2509.13557 869"></polyline>
                <polyline id="Fill-192" fill="#6C523C" points="3255.18482 799 3326.83018 799 3361 877 3223 877 3255.18482 799"></polyline>
                <polyline id="Fill-194" fill="#C1832F" points="3292 877 3292 799 3326.83179 799 3361 877 3292 877"></polyline>
                <polyline id="Fill-197" fill="#4A3A2A" points="2811 49.6561247 2878.99935 14 2947 49.6561247 2947 130.423244 2878.81765 158 2811 130.423244 2811 49.6561247"></polyline>
                <polyline id="Fill-208" fill="#9E9D6B" points="2386 446.998055 2476.5 394 2567 446.998055 2476.5 500 2386 446.998055"></polyline>
                <polyline id="Fill-209" fill="#E05829" points="2476.57798 534.902303 2567 481.007455 2566.99353 447 2476.49968 499.845419 2386.00712 447.003235 2386 481.011337 2476.42202 534.907479 2476.42202 534.995471 2476.49968 534.952122 2476.57798 535 2476.57798 534.902303"></polyline>
                <polyline id="Fill-210" fill="#4A3A2A" points="2402 445.997392 2477 402 2552 445.997392 2477 490 2402 445.997392"></polyline>
                <path d="M2500,443.002945 C2500,451.282937 2489.70112,458 2476.99968,458 C2464.29952,458 2454,451.282937 2454,443.002945 C2454,434.717063 2464.29952,428 2476.99968,428 C2489.70112,428 2500,434.717063 2500,443.002945" id="Fill-211" fill="#D8D3C8"></path>
                <path d="M2484,444.002656 C2484,446.76162 2480.64398,449 2476.50354,449 C2472.36246,449 2469,446.76162 2469,444.002656 C2469,441.239044 2472.36246,439 2476.50354,439 C2480.64398,439 2484,441.239044 2484,444.002656" id="Fill-212" fill="#4A3A2A"></path>
                <polyline id="Fill-222" fill="#E0DBD2" points="2563 50.6333281 2476.49675 13 2390 50.6333281 2390 135.887059 2476.26947 165 2476.37987 164.962442 2476.49675 165 2476.49675 164.92359 2563 135.887059 2563 50.6333281"></polyline>
                <polyline id="Fill-223" fill="#F5BC45" points="2449 79.8870626 2476.50032 68 2504 79.8870626 2504 106.809277 2476.42821 116 2449 106.809277 2449 79.8870626"></polyline>
                <polyline id="Fill-224" fill="#ECD571" points="2449 106.809277 2449 79.8870626 2476 68 2476 116 2449 106.809277"></polyline>
                <polyline id="Fill-238" fill="#F5BC45" points="1275.00357 396 1191 441.819391 1191 512.953162 1275.00357 558 1359 512.953162 1359 441.819391 1275.00357 396"></polyline>
                <polyline id="Fill-239" fill="#7B814D" points="1217 375 1231.1786 420.581406 1276 437 1262.63963 390.640659 1217 375"></polyline>
                <polyline id="Fill-240" fill="#7B814D" points="1331 385 1290.54989 397.7507 1276 438 1317.13527 425.974306 1331 385"></polyline>
                <polyline id="Fill-241" fill="#4A3A2A" points="63 988 63 806 48.6255287 806 48.6255287 816.3401 30.5356495 836.696768 34.4134441 843.749778 20 864.637039 20 988 63 988"></polyline>
                <polyline id="Fill-242" fill="#C1832F" points="63 988 63 806 77.3787947 806 77.3787947 816.3401 95.4659417 836.696768 91.5887328 843.749778 106 864.637039 106 988 63 988"></polyline>
                <polygon id="Fill-243" fill="#ECD571" points="20 968 107 968 107 879 20 879"></polygon>
                <polygon id="Fill-246" fill="#D8D3C8" points="44 807 82 807 82 798 44 798"></polygon>
                <polyline id="Fill-262" fill="#4A3A2A" points="2088 989 2088 807 2073.62596 807 2073.62596 817.346203 2055.53516 837.695677 2059.41366 844.741965 2045 865.634954 2045 989 2088 989"></polyline>
                <polyline id="Fill-263" fill="#C1832F" points="2088 989 2088 807 2102.37295 807 2102.37295 817.346203 2120.46659 837.695677 2116.58938 844.741965 2131 865.634954 2131 989 2088 989"></polyline>
                <polygon id="Fill-264" fill="#ECD571" points="2045 968 2132 968 2132 879 2045 879"></polygon>
                <polygon id="Fill-267" fill="#D8D3C8" points="2069 808 2107 808 2107 799 2069 799"></polygon>
                <polyline id="Fill-283" fill="#4A3A2A" points="2871 563 2871 381 2856.61925 381 2856.61925 391.343799 2838.52964 411.698811 2842.41388 418.746519 2828 439.637938 2828 563 2871 563"></polyline>
                <polyline id="Fill-284" fill="#C1832F" points="2871 563 2871 381 2885.3723 381 2885.3723 391.343799 2903.46594 411.698811 2899.58159 418.746519 2914 439.637938 2914 563 2871 563"></polyline>
                <polygon id="Fill-285" fill="#ECD571" points="2828 543 2915 543 2915 454 2828 454"></polygon>
                <polyline id="Fill-286" fill="#6C523C" points="2841 484.370641 2871.50389 471 2902 484.370641 2902 514.657816 2871.41968 525 2841 514.657816 2841 484.370641"></polyline>
                <polyline id="Fill-287" fill="#4A3A2A" points="2841 514.278364 2841 484.365434 2872 471 2872 525 2841 514.278364"></polyline>
                <polygon id="Fill-288" fill="#D8D3C8" points="2852 382 2890 382 2890 373 2852 373"></polygon>
                <g id="Group" transform="translate(835.000000, 786.000000)">
                    <polyline id="Fill-294" fill="#ECD571" points="77.7275676 150.26535 95.7016216 1.66386018 1.08259459 1.26246201 18.0259459 152.621945 4.10594595 212.514438 88.7863784 212.676292"></polyline>
                    <polyline id="Fill-295" fill="#F5BC45" points="47.8696216 212.598602 4.10594595 212.514438 18.0259459 152.621945 0.739459459 3.1593921 47.9215135 2.88100304 47.8696216 212.598602"></polyline>
                    <polyline id="Fill-296" fill="#D8D3C8" points="0.136216216 0.0194224924 95.987027 0.0906382979 93.3275676 21.8632523 2.56864865 21.8891489 0.136216216 0.0194224924"></polyline>
                    <polyline id="Fill-297" fill="#9E9D6B" points="20.2637838 52.5313678 47.9215135 40.4829483 75.5805405 52.5313678 75.5805405 79.8070213 47.8508108 89.1233435 20.2637838 79.8070213 20.2637838 52.5313678"></polyline>
                    <polyline id="Fill-298" fill="#7B814D" points="20.2637838 79.4703647 20.2637838 52.5313678 47.9215135 40.4829483 47.9215135 89.1233435 20.2637838 79.4703647"></polyline>
                </g>
                <polyline id="Fill-299" fill="#7B814D" points="3243 533 3243 409 3222.43873 409 3222.43873 420.199453 3206 419.900352 3206 533 3243 533"></polyline>
                <polyline id="Fill-300" fill="#9E9D6B" points="3243 533 3243 409 3263.55773 409 3263.55773 420.199453 3280 419.900352 3280 533 3243 533"></polyline>
                <polygon id="Fill-301" fill="#D8D3C8" points="3216 410 3268 410 3268 393 3216 393"></polygon>
                <polyline id="Fill-302" fill="#4A3A2A" points="3332 533 3332 409 3311.44589 409 3311.44589 420.199453 3295 419.900352 3295 533 3332 533"></polyline>
                <polyline id="Fill-303" fill="#C1832F" points="3332 533 3332 409 3352.55773 409 3352.55773 420.199453 3369 419.900352 3369 533 3332 533"></polyline>
                <polygon id="Fill-304" fill="#D8D3C8" points="3305 410 3357 410 3357 393 3305 393"></polygon>
                <polyline id="Fill-7" fill="#6C523C" points="408 30.6395938 434.5 19 461 30.6395938 461 56.9978507 434.42923 66 408 56.9978507 408 30.6395938"></polyline>
                <polyline id="Fill-8" fill="#4A3A2A" points="408 56.6688986 408 30.6395938 435 19 435 66 408 56.6688986"></polyline>
                <polyline id="Fill-14" fill="#6C523C" points="480 30.6395938 506.5 19 533 30.6395938 533 56.9978507 506.428587 66 480 56.9978507 480 30.6395938"></polyline>
                <polyline id="Fill-15" fill="#4A3A2A" points="480 56.6688986 480 30.6395938 507 19 507 66 480 56.6688986"></polyline>
                <polyline id="Fill-46" fill="#9E9D6B" points="99.1362138 83 39.2345185 83 12 21 122 21 99.1362138 83"></polyline>
                <polyline id="Fill-50" fill="#6C523C" points="842.190458 13 913.825288 13 948 91 810 91 842.190458 13"></polyline>
                <polyline id="Fill-52" fill="#A8722F" points="879 91 879 13 913.82561 13 948 91 879 91"></polyline>
                <polyline id="Fill-123" fill="#ECD571" points="1237.82526 23 1330.13636 23 1337 40 1231 40 1237.82526 23"></polyline>
                <path d="M1295,10.0019376 C1295,15.525415 1290.52261,20 1285.00646,20 C1279.4761,20 1275,15.525415 1275,10.0019376 C1275,4.48427307 1279.4761,0 1285.00646,0 C1290.52261,0 1295,4.48427307 1295,10.0019376" id="Fill-124" fill="#E05829"></path>
                <polyline id="Fill-157" fill="#ECD571" points="2086.00615 98 2166 56.6249222 2086.00615 13 2006 56.6249222 2086.00615 98"></polyline>
                <polyline id="Fill-161" fill="#6C523C" points="2813 920.63828 2839.49936 909 2866 920.63828 2866 946.997657 2839.42923 956 2813 946.997657 2813 920.63828"></polyline>
                <polyline id="Fill-162" fill="#4A3A2A" points="2813 946.673832 2813 920.63828 2840 909 2840 956 2813 946.673832"></polyline>
                <polyline id="Fill-168" fill="#6C523C" points="2885 920.63828 2911.50032 909 2938 920.63828 2938 946.997657 2911.42955 956 2885 946.997657 2885 920.63828"></polyline>
                <polyline id="Fill-169" fill="#4A3A2A" points="2885 946.673832 2885 920.63828 2912 909 2912 956 2885 946.673832"></polyline>
                <polyline id="Fill-188" fill="#ECD571" points="2509.13557 955 2449.23452 955 2422 892 2532 892 2509.13557 955"></polyline>
                <polygon id="Fill-193" fill="#D8D3C8" points="3276 975 3309 975 3309 892 3276 892"></polygon>
                <path d="M2902,86.5 C2902,99.4787369 2891.47975,110 2878.50325,110 C2865.52025,110 2855,99.4787369 2855,86.5 C2855,73.5258115 2865.52025,63 2878.50325,63 C2891.47975,63 2902,73.5258115 2902,86.5" id="Fill-198" fill="#D8D3C8"></path>
                <path d="M2886,87.5041016 C2886,91.6417063 2882.64141,95 2878.50568,95 C2874.35227,95 2871,91.6417063 2871,87.5041016 C2871,83.3620798 2874.35227,80 2878.50568,80 C2882.64141,80 2886,83.3620798 2886,87.5041016" id="Fill-199" fill="#4A3A2A"></path>
                <polyline id="Fill-244" fill="#6C523C" points="33 910.369817 63.4967612 897 94 910.369817 94 940.656943 63.4190294 951 33 940.656943 33 910.369817"></polyline>
                <polyline id="Fill-245" fill="#4A3A2A" points="33 940.279412 33 910.363308 64 897 64 951 33 940.279412"></polyline>
                <polyline id="Fill-265" fill="#6C523C" points="2058 910.369817 2088.50032 897 2119 910.369817 2119 940.656943 2088.4161 951 2058 940.656943 2058 910.369817"></polyline>
                <polyline id="Fill-266" fill="#4A3A2A" points="2058 940.279412 2058 910.363308 2089 897 2089 951 2058 940.279412"></polyline>
            </g>
            <g id="Group-3" transform="translate(2101.000000, 533.000000)">
                <polyline id="Fill-428" fill="#E2DED5" points="105.765768 41.3069361 70.530929 17 35.2348387 41.3069361 0 17 0 35.8099399 35.2348387 61 70.530929 35.8099399 70.530929 35.8039323 105.765768 61 141 35.8039323 141 17 105.765768 41.3069361"></polyline>
                <polyline id="Fill-429" fill="#E05829" points="105.765768 24.3069361 70.530929 0 35.2348387 24.3069361 0 0 0 18.8039323 35.2348387 44 70.530929 18.8039323 105.765768 44 141 18.8039323 141 0 105.765768 24.3069361"></polyline>
                <polyline id="Fill-430" fill="#E05829" points="105.765768 57.3069361 70.530929 33 35.2348387 57.3069361 0 33 0 51.8039323 35.2348387 77 70.530929 51.8039323 105.765768 77 141 51.8039323 141 33 105.765768 57.3069361"></polyline>
                <polyline id="Fill-431" fill="#E05829" points="141 51.7230381 141 0 139 1.23439651 139 53 141 51.7230381"></polyline>
                <polyline id="Fill-432" fill="#E05829" points="0 51.7230381 0 0 2 1.23439651 2 53 0 51.7230381"></polyline>
                <polyline id="Fill-433" fill="#E2DED5" points="176.765161 118.306936 141.469071 94 106.234839 118.306936 71 94 71 112.80994 106.234839 138 141.469071 112.80994 141.469071 112.803932 176.765161 138 212 112.803932 212 94 176.765161 118.306936"></polyline>
                <polyline id="Fill-434" fill="#E05829" points="176.765161 101.300928 141.469071 77 106.234839 101.300928 71 77 71 95.8039323 106.234839 121 141.469071 95.8039323 176.765161 121 212 95.8039323 212 77 176.765161 101.300928"></polyline>
                <polyline id="Fill-435" fill="#E05829" points="176.765161 134.306936 141.469071 110 106.234839 134.306936 71 110 71 128.803932 106.234839 154 141.469071 128.803932 176.765161 154 212 128.803932 212 110 176.765161 134.306936"></polyline>
                <polyline id="Fill-436" fill="#E05829" points="212 128.723038 212 77 210 78.2283157 210 130 212 128.723038"></polyline>
                <polyline id="Fill-437" fill="#E05829" points="71 128.723038 71 77 73 78.2283157 73 130 71 128.723038"></polyline>
            </g>
            <g id="Group-4" transform="translate(3349.000000, 114.000000)">
                <polyline id="Fill-37" fill="#E05829" points="40.1308641 164 40 0 80 0.0414799827 56.9300232 32.2299465 80 131.811533 63.2008408 164 40.1308641 164"></polyline>
                <polyline id="Fill-38" fill="#4A3A2A" points="40 164 39.9049458 0 0 0.0414799827 24.7140948 32.2299465 0 131.811533 16.8542997 164 40 164"></polyline>
            </g>
        </g>
    </g>
</svg>